<?xml version="1.0" encoding="UTF-8"?>
<svg id="Capa_2" data-name="Capa 2" xmlns="http://www.w3.org/2000/svg" viewBox="0 0 749.27 183.08">
  <defs>
    <style>
      .cls-1 {
        fill: #aa213e;
      }
    </style>
  </defs>
  <g id="Capa_1-2" data-name="Capa 1">
    <g>
      <g>
        <path class="cls-1" d="M105.97,17.18c-12.56,0-24.38-.54-33.28-1.53-13.83-1.53-14.99-3.43-14.99-5.08s1.16-3.55,14.99-5.08c8.9-.99,20.72-1.53,33.28-1.53s24.38.54,33.28,1.53c13.83,1.53,14.99,3.43,14.99,5.08s-1.16,3.55-14.99,5.08c-8.9.99-20.72,1.53-33.28,1.53ZM61.1,10.56c3.69,1.7,19.85,3.76,44.87,3.76s41.19-2.06,44.87-3.76c-3.69-1.7-19.85-3.76-44.87-3.76s-41.19,2.06-44.87,3.76Z"/>
        <path class="cls-1" d="M105.97,54.33c-22.49,0-43.64-.97-59.56-2.73-25.87-2.87-25.87-6.46-25.87-7.99s0-5.13,25.87-7.99c15.92-1.76,37.07-2.73,59.56-2.73s43.64.97,59.56,2.73c25.87,2.86,25.87,6.46,25.87,7.99s0,5.13-25.87,7.99c-15.92,1.76-37.07,2.73-59.56,2.73ZM23.44,43.6c2.24,3.26,32.45,7.88,82.54,7.88s80.3-4.62,82.54-7.88c-2.23-3.26-32.44-7.88-82.54-7.88s-80.3,4.62-82.54,7.88Z"/>
        <path class="cls-1" d="M105.97,87.37c-27.97,0-54.27-.97-74.05-2.73C0,81.8,0,78.32,0,76.64s0-5.16,31.92-8c19.79-1.76,46.09-2.73,74.05-2.73s54.26.97,74.05,2.73c31.92,2.84,31.92,6.32,31.92,8s0,5.16-31.92,8c-19.79,1.76-46.09,2.73-74.05,2.73ZM3,76.64c3.71,3.38,40.57,7.88,102.97,7.88s99.25-4.5,102.97-7.88c-3.72-3.38-40.57-7.88-102.97-7.88S6.72,73.27,3,76.64Z"/>
        <path class="cls-1" d="M105.97,182.38c-12.56,0-24.38-.54-33.28-1.53-13.83-1.53-14.99-3.43-14.99-5.08s1.16-3.55,14.99-5.08c8.9-.99,20.72-1.53,33.28-1.53s24.38.54,33.28,1.53c13.83,1.53,14.99,3.43,14.99,5.08s-1.16,3.55-14.99,5.08c-8.9.99-20.72,1.53-33.28,1.53ZM61.1,175.76c3.69,1.7,19.85,3.76,44.87,3.76s41.19-2.06,44.87-3.76c-3.69-1.7-19.85-3.76-44.87-3.76s-41.19,2.06-44.87,3.76Z"/>
        <path class="cls-1" d="M105.97,153.45c-22.49,0-43.64-.97-59.56-2.73-25.87-2.87-25.87-6.46-25.87-7.99s0-5.13,25.87-7.99c15.92-1.76,37.07-2.73,59.56-2.73s43.64.97,59.56,2.73c25.87,2.86,25.87,6.46,25.87,7.99s0,5.13-25.87,7.99c-15.92,1.76-37.07,2.73-59.56,2.73ZM23.44,142.72c2.24,3.26,32.45,7.88,82.54,7.88s80.3-4.62,82.54-7.88c-2.23-3.26-32.44-7.88-82.54-7.88s-80.3,4.62-82.54,7.88Z"/>
        <path class="cls-1" d="M105.97,120.41c-27.97,0-54.27-.97-74.05-2.73C0,114.84,0,111.36,0,109.68s0-5.16,31.92-8c19.79-1.76,46.09-2.73,74.05-2.73s54.27.97,74.05,2.73c31.92,2.84,31.92,6.32,31.92,8s0,5.16-31.92,8c-19.79,1.76-46.09,2.73-74.05,2.73ZM3,109.68c3.72,3.38,40.57,7.88,102.97,7.88s99.25-4.5,102.97-7.88c-3.71-3.38-40.57-7.88-102.97-7.88S6.72,106.31,3,109.68Z"/>
      </g>
      <g>
        <path class="cls-1" d="M262.47,182.51v-106.54h48.38c21.71,0,38.46,7.78,38.46,32.47,0,23.17-17.95,32.64-38.46,32.64h-32.99v41.43h-15.39ZM277.85,131.27h32.65c13.68,0,23.42-5.41,23.42-22.66s-10.94-19.45-23.42-19.45h-32.65v42.11Z"/>
        <path class="cls-1" d="M438.2,155.62c-2.05,20.46-16.58,26.89-40,26.89-25.13,0-40-16.4-40-38.56,0-23.85,13.33-42.96,42.91-42.96,25.64,0,39.49,18.94,38.29,44.99h-65.99c0,14.88,12.14,24.35,26.33,24.35,23.25,0,23.76-10.82,24.79-14.71h13.68ZM425.55,137.36c-.85-11.33-7.01-23.51-25.47-23.51-15.9,0-26.67,12.18-26.67,23.51h52.14Z"/>
        <path class="cls-1" d="M457.86,167.97V61.76h14.7v120.75h0c-8.12,0-14.7-6.51-14.7-14.54Z"/>
        <path class="cls-1" d="M551.02,165.79c-3.59,11.16-14.87,16.74-27.01,17.25-15.9.68-32.99-7.78-33.33-24.01-.68-24.69,21.2-27.23,36.24-27.23h24.27v-9.64c0-8.63-10.94-11.84-22.56-12.01-10.77-.17-20.86,4.06-20.86,12.68h-13.68c0-18.26,16.75-24.52,34.87-24.52,28.72,0,36.92,13.53,36.92,22.83v42.79c0,3.21,2.05,5.24,5.3,5.24h1.54v11.5h-5.81c-9.57-.17-15.9-5.41-15.9-14.88ZM524.18,171.88c10.43.17,22.22-4.9,26.84-16.24v-14.38h-24.62c-5.98,0-19.66.68-21.03,14.54-1.03,10.32,8.03,15.9,18.8,16.07Z"/>
        <path class="cls-1" d="M663.16,155.62c-2.05,20.46-16.58,26.89-40,26.89-25.13,0-40-16.4-40-38.56,0-23.85,13.33-42.96,42.91-42.96,25.64,0,39.49,18.94,38.29,44.99h-65.99c0,14.88,12.14,24.35,26.33,24.35,23.25,0,23.76-10.82,24.79-14.71h13.68ZM650.51,137.36c-.85-11.33-7.01-23.51-25.47-23.51-15.9,0-26.67,12.18-26.67,23.51h52.14Z"/>
        <path class="cls-1" d="M671.88,182.51v-6.76l49.75-61.9h-47.35v-12.01h67.52v6.93l-49.57,61.73h49.57c0,6.63-5.43,12.01-12.14,12.01h-57.78Z"/>
      </g>
      <polygon class="cls-1" points="527.54 84.72 527.54 84.7 538.77 64.33 555.7 64.33 541.25 84.72 527.54 84.72"/>
      <g>
        <path class="cls-1" d="M274.89,43.35c-4.43,0-8.02-1.41-10.76-4.23-2.75-2.82-4.12-6.51-4.12-11.06s1.37-8.23,4.12-11.06c2.74-2.82,6.33-4.23,10.76-4.23,3.65,0,6.69.9,9.12,2.71,2.43,1.8,3.9,4.23,4.41,7.29l-6.23,1.23c-.31-1.69-1.11-3.05-2.38-4.09-1.27-1.04-2.85-1.56-4.73-1.56-2.55,0-4.59.88-6.12,2.65s-2.29,4.12-2.29,7.06.76,5.29,2.29,7.06c1.53,1.76,3.57,2.65,6.12,2.65,1.88,0,3.45-.49,4.71-1.47,1.25-.98,2.06-2.33,2.41-4.06l6.29,1.24c-.63,3.1-2.15,5.52-4.56,7.26-2.41,1.75-5.42,2.62-9.03,2.62Z"/>
        <path class="cls-1" d="M321.77,26.94c0,1.06-.04,1.94-.12,2.65h-22.65c.27,2.55,1.19,4.57,2.74,6.06,1.55,1.49,3.5,2.24,5.85,2.24,1.96,0,3.59-.44,4.88-1.32,1.29-.88,2.14-2.13,2.53-3.74l6.06,1.53c-.78,2.86-2.37,5.08-4.76,6.65-2.39,1.57-5.33,2.35-8.82,2.35-4.51,0-8.1-1.5-10.76-4.5-2.67-3-4-6.6-4-10.79s1.28-7.84,3.85-10.82c2.57-2.98,6.11-4.47,10.62-4.47s8.12,1.39,10.71,4.18c2.59,2.78,3.88,6.12,3.88,10ZM299.3,24.7h15.65c-.2-2.08-.97-3.74-2.32-5-1.35-1.25-3.17-1.88-5.44-1.88-2.04,0-3.74.6-5.12,1.79-1.37,1.2-2.29,2.89-2.76,5.09Z"/>
        <path class="cls-1" d="M327.71,42.88V13.23h6.41v4.94c2.27-3.61,5.53-5.41,9.76-5.41,3.18,0,5.75.97,7.73,2.91,1.98,1.94,2.97,4.5,2.97,7.68v19.53h-6.41v-18.06c0-1.88-.55-3.4-1.65-4.56-1.1-1.16-2.57-1.74-4.41-1.74-2.51,0-4.47,1-5.88,3-1.41,2-2.12,4.78-2.12,8.35v13h-6.41Z"/>
        <path class="cls-1" d="M377.88,42.64c-1.41.47-2.98.71-4.71.71-2.94,0-5.3-.82-7.09-2.47-1.78-1.65-2.68-4.1-2.68-7.35v-14.82h-5.18v-5.47h5.18V4.41h6.41v8.82h7.65v5.47h-7.65v14.47c0,1.45.36,2.56,1.09,3.32.73.76,1.71,1.15,2.97,1.15,1.41,0,2.61-.24,3.59-.71l.41,5.71Z"/>
        <path class="cls-1" d="M401.7,19.47c-1.06-.47-2.33-.71-3.82-.71-2.35,0-4.3,1.09-5.85,3.26-1.55,2.18-2.32,5.44-2.32,9.79v11.06h-6.41V13.23h6.41v5.65c.78-1.76,2.04-3.22,3.76-4.38,1.73-1.16,3.49-1.74,5.29-1.74,1.29,0,2.39.18,3.29.53l-.35,6.18Z"/>
        <path class="cls-1" d="M419.11,43.35c-4.47,0-8.14-1.44-11-4.32-2.86-2.88-4.29-6.54-4.29-10.97s1.43-8.09,4.29-10.97c2.86-2.88,6.53-4.32,11-4.32s8.09,1.44,10.97,4.32c2.88,2.88,4.32,6.54,4.32,10.97s-1.44,8.09-4.32,10.97c-2.88,2.88-6.54,4.32-10.97,4.32ZM412.73,35.06c1.63,1.8,3.75,2.71,6.38,2.71s4.75-.9,6.38-2.71c1.63-1.8,2.44-4.14,2.44-7s-.81-5.2-2.44-7c-1.63-1.8-3.76-2.71-6.38-2.71s-4.76.9-6.38,2.71c-1.63,1.8-2.44,4.14-2.44,7s.81,5.2,2.44,7Z"/>
        <path class="cls-1" d="M468.17,43.35c-4.47,0-8.14-1.44-11-4.32-2.86-2.88-4.29-6.54-4.29-10.97s1.43-8.09,4.29-10.97c2.86-2.88,6.53-4.32,11-4.32s8.09,1.44,10.97,4.32c2.88,2.88,4.32,6.54,4.32,10.97s-1.44,8.09-4.32,10.97c-2.88,2.88-6.54,4.32-10.97,4.32ZM461.79,35.06c1.63,1.8,3.75,2.71,6.38,2.71s4.75-.9,6.38-2.71c1.63-1.8,2.44-4.14,2.44-7s-.81-5.2-2.44-7c-1.63-1.8-3.76-2.71-6.38-2.71s-4.76.9-6.38,2.71c-1.63,1.8-2.44,4.14-2.44,7s.81,5.2,2.44,7Z"/>
        <path class="cls-1" d="M505.64,19.12c-.59-.12-1.26-.18-2-.18-2.35,0-4.25,1.06-5.68,3.18-1.43,2.12-2.15,5.35-2.15,9.71v11.06h-6.41V13.23h6.41v5.65c.71-1.8,1.85-3.27,3.44-4.41,1.59-1.14,3.28-1.71,5.09-1.71l1.71.12-.41,6.23Z"/>
        <path class="cls-1" d="M529.4,42.64c-1.41.47-2.98.71-4.71.71-2.94,0-5.3-.82-7.09-2.47-1.78-1.65-2.68-4.1-2.68-7.35v-14.82h-5.18v-5.47h5.18V4.41h6.41v8.82h7.65v5.47h-7.65v14.47c0,1.45.36,2.56,1.09,3.32.73.76,1.71,1.15,2.97,1.15,1.41,0,2.61-.24,3.59-.71l.41,5.71Z"/>
        <path class="cls-1" d="M547.87,43.35c-4.47,0-8.14-1.44-11-4.32-2.86-2.88-4.29-6.54-4.29-10.97s1.43-8.09,4.29-10.97c2.86-2.88,6.53-4.32,11-4.32s8.09,1.44,10.97,4.32c2.88,2.88,4.32,6.54,4.32,10.97s-1.44,8.09-4.32,10.97c-2.88,2.88-6.54,4.32-10.97,4.32ZM541.49,35.06c1.63,1.8,3.75,2.71,6.38,2.71s4.75-.9,6.38-2.71c1.63-1.8,2.44-4.14,2.44-7s-.81-5.2-2.44-7c-1.63-1.8-3.76-2.71-6.38-2.71s-4.76.9-6.38,2.71c-1.63,1.8-2.44,4.14-2.44,7s.81,5.2,2.44,7Z"/>
        <path class="cls-1" d="M569.1,53.58V13.23h6.41v3.76c.86-1.25,2.12-2.27,3.76-3.06,1.65-.78,3.47-1.18,5.47-1.18,4.31,0,7.71,1.41,10.21,4.23,2.49,2.82,3.74,6.51,3.74,11.06s-1.28,8.23-3.85,11.06c-2.57,2.82-6.05,4.23-10.44,4.23-1.8,0-3.51-.35-5.12-1.06-1.61-.71-2.86-1.65-3.76-2.82v14.12h-6.41ZM577.46,35.09c1.57,1.78,3.65,2.68,6.23,2.68s4.67-.89,6.23-2.68c1.57-1.78,2.35-4.13,2.35-7.03s-.78-5.29-2.35-7.06c-1.57-1.76-3.65-2.65-6.23-2.65s-4.67.88-6.23,2.65c-1.57,1.76-2.35,4.12-2.35,7.06s.78,5.25,2.35,7.03Z"/>
        <path class="cls-1" d="M632.1,26.94c0,1.06-.04,1.94-.12,2.65h-22.65c.27,2.55,1.19,4.57,2.74,6.06,1.55,1.49,3.5,2.24,5.85,2.24,1.96,0,3.59-.44,4.88-1.32,1.29-.88,2.14-2.13,2.53-3.74l6.06,1.53c-.78,2.86-2.37,5.08-4.76,6.65-2.39,1.57-5.33,2.35-8.82,2.35-4.51,0-8.1-1.5-10.76-4.5-2.67-3-4-6.6-4-10.79s1.28-7.84,3.85-10.82c2.57-2.98,6.11-4.47,10.62-4.47s8.12,1.39,10.71,4.18c2.59,2.78,3.88,6.12,3.88,10ZM609.63,24.7h15.65c-.2-2.08-.97-3.74-2.32-5-1.35-1.25-3.17-1.88-5.44-1.88-2.04,0-3.74.6-5.12,1.79-1.37,1.2-2.29,2.89-2.76,5.09ZM625.75,1.23l-7,8.71h-4.59l3.94-8.71h7.65Z"/>
        <path class="cls-1" d="M650.63,43.35c-4.43,0-7.9-1.4-10.41-4.21-2.51-2.8-3.76-6.5-3.76-11.09s1.24-8.23,3.73-11.06c2.49-2.82,5.93-4.23,10.32-4.23,1.88,0,3.64.38,5.26,1.15,1.63.76,2.89,1.77,3.79,3.03V1.23h6.41v41.64h-6.41v-3.76c-.71,1.25-1.88,2.27-3.53,3.06s-3.45,1.18-5.41,1.18ZM645.22,35.09c1.57,1.78,3.65,2.68,6.23,2.68s4.67-.89,6.23-2.68c1.57-1.78,2.35-4.13,2.35-7.03s-.78-5.29-2.35-7.06c-1.57-1.76-3.65-2.65-6.23-2.65s-4.67.88-6.23,2.65c-1.57,1.76-2.35,4.12-2.35,7.06s.78,5.25,2.35,7.03Z"/>
        <path class="cls-1" d="M676.74,8.29c-1.18,0-2.16-.4-2.94-1.21-.78-.8-1.18-1.77-1.18-2.91s.39-2.17,1.18-2.97c.78-.8,1.76-1.21,2.94-1.21s2.23.4,3.03,1.21c.8.8,1.21,1.79,1.21,2.97s-.4,2.11-1.21,2.91-1.81,1.21-3.03,1.21ZM673.57,42.88V13.23h6.41v29.64h-6.41Z"/>
        <path class="cls-1" d="M700.86,43.35c-4.43,0-8.02-1.41-10.76-4.23-2.75-2.82-4.12-6.51-4.12-11.06s1.37-8.23,4.12-11.06c2.74-2.82,6.33-4.23,10.76-4.23,3.65,0,6.69.9,9.12,2.71,2.43,1.8,3.9,4.23,4.41,7.29l-6.23,1.23c-.31-1.69-1.11-3.05-2.38-4.09-1.28-1.04-2.85-1.56-4.74-1.56-2.55,0-4.59.88-6.12,2.65-1.53,1.76-2.29,4.12-2.29,7.06s.76,5.29,2.29,7.06c1.53,1.76,3.57,2.65,6.12,2.65,1.88,0,3.45-.49,4.71-1.47,1.25-.98,2.06-2.33,2.41-4.06l6.29,1.24c-.63,3.1-2.15,5.52-4.56,7.26-2.41,1.75-5.42,2.62-9.03,2.62Z"/>
        <path class="cls-1" d="M733.97,43.35c-4.47,0-8.14-1.44-11-4.32-2.86-2.88-4.29-6.54-4.29-10.97s1.43-8.09,4.29-10.97c2.86-2.88,6.53-4.32,11-4.32s8.09,1.44,10.97,4.32c2.88,2.88,4.32,6.54,4.32,10.97s-1.44,8.09-4.32,10.97c-2.88,2.88-6.54,4.32-10.97,4.32ZM727.59,35.06c1.63,1.8,3.75,2.71,6.38,2.71s4.75-.9,6.38-2.71c1.63-1.8,2.44-4.14,2.44-7s-.81-5.2-2.44-7c-1.63-1.8-3.76-2.71-6.38-2.71s-4.75.9-6.38,2.71c-1.63,1.8-2.44,4.14-2.44,7s.81,5.2,2.44,7Z"/>
      </g>
    </g>
  </g>
</svg>